<svg width="24" height="24" viewBox="0 0 24 24" fill="none" xmlns="http://www.w3.org/2000/svg">
<circle cx="20" cy="4" r="3" fill="#F84AB3"/>
<path fill-rule="evenodd" clip-rule="evenodd" d="M20.9994 10.9292C20.9998 10.9631 21 10.997 21 11.031V20H3V11.031C3 6.043 7.03 2 12 2C12.4291 2 12.8511 2.03013 13.2642 2.08841C13.0921 2.69603 13 3.33726 13 4C13 4.02378 13.0001 4.04753 13.0004 4.07126C12.6736 4.0243 12.3396 4 12 4C8.134 4 5 7.148 5 11.031V18H19V11.031C19 10.9969 18.9998 10.9629 18.9993 10.929C19.3261 10.9758 19.6602 11 20 11C20.3393 11 20.673 10.9759 20.9994 10.9292ZM13.7678 22.7678C14.2366 22.2989 14.5 21.663 14.5 21H9.5C9.5 21.663 9.76339 22.2989 10.2322 22.7678C10.7011 23.2366 11.337 23.5 12 23.5C12.663 23.5 13.2989 23.2366 13.7678 22.7678Z" fill="#99A7B5"/>
</svg>
