<svg width="106" height="22" viewBox="0 0 106 22" fill="none" xmlns="http://www.w3.org/2000/svg">
<path d="M7.61328 1.0625C8.67578 1.0625 9.625 1.29297 10.4609 1.75391C11.3047 2.21484 11.9609 2.85547 12.4297 3.67578C12.9062 4.48828 13.1445 5.40625 13.1445 6.42969C13.1445 7.50781 12.9102 8.46484 12.4414 9.30078C11.9727 10.1289 11.3203 10.7734 10.4844 11.2344C9.65625 11.6875 8.71484 11.9141 7.66016 11.9141H3.81641V17H0.898438V1.0625H7.61328ZM7.51953 9.3125C8.01953 9.3125 8.47656 9.1875 8.89062 8.9375C9.30469 8.67969 9.62891 8.33203 9.86328 7.89453C10.1055 7.45703 10.2266 6.96875 10.2266 6.42969C10.2266 5.94531 10.1055 5.49219 9.86328 5.07031C9.62109 4.64844 9.28906 4.30859 8.86719 4.05078C8.45312 3.79297 7.99609 3.66406 7.49609 3.66406H3.81641V9.3125H7.51953Z" fill="#012345"/>
<path d="M26.1172 10.7656C26.1172 11.0312 26.0977 11.3516 26.0586 11.7266H16.6484C16.7422 12.3672 16.9453 12.9219 17.2578 13.3906C17.5781 13.8594 17.9727 14.2188 18.4414 14.4688C18.918 14.7109 19.4336 14.832 19.9883 14.832C20.6914 14.832 21.2656 14.6953 21.7109 14.4219C22.1641 14.1406 22.4961 13.7383 22.707 13.2148H25.8008C25.5898 13.957 25.2188 14.6445 24.6875 15.2773C24.1562 15.9102 23.4883 16.418 22.6836 16.8008C21.8867 17.1758 21.0078 17.3633 20.0469 17.3633C18.8672 17.3633 17.8008 17.0781 16.8477 16.5078C15.8945 15.9375 15.1484 15.1641 14.6094 14.1875C14.0703 13.2109 13.8008 12.1406 13.8008 10.9766C13.8008 9.8125 14.0703 8.74219 14.6094 7.76562C15.1484 6.78906 15.8945 6.01562 16.8477 5.44531C17.8008 4.875 18.8672 4.58984 20.0469 4.58984C21.2266 4.58984 22.2773 4.87109 23.1992 5.43359C24.1211 5.99609 24.8359 6.75 25.3438 7.69531C25.8594 8.63281 26.1172 9.65625 26.1172 10.7656ZM23.2227 9.53516C23.1836 9.08984 23.0156 8.67969 22.7188 8.30469C22.4219 7.92188 22.0352 7.62109 21.5586 7.40234C21.0898 7.17578 20.582 7.0625 20.0352 7.0625C19.2773 7.0625 18.5977 7.27344 17.9961 7.69531C17.4023 8.10938 16.9922 8.72266 16.7656 9.53516H23.2227Z" fill="#012345"/>
<path d="M31.1328 4.95312V6.98047C31.5703 6.24609 32.1523 5.66797 32.8789 5.24609C33.6133 4.81641 34.4102 4.60156 35.2695 4.60156C36.3867 4.60156 37.3906 4.88672 38.2812 5.45703C39.1797 6.02734 39.8789 6.80078 40.3789 7.77734C40.8867 8.74609 41.1406 9.8125 41.1406 10.9766C41.1406 12.1484 40.8867 13.2227 40.3789 14.1992C39.8711 15.168 39.1719 15.9375 38.2812 16.5078C37.3984 17.0781 36.4062 17.3633 35.3047 17.3633C34.4375 17.3633 33.6406 17.1562 32.9141 16.7422C32.1875 16.3203 31.6211 15.7578 31.2148 15.0547L31.2734 16.4492V21.1133H28.4375V4.95312H31.1328ZM34.7891 14.75C35.4297 14.75 36.0195 14.5977 36.5586 14.293C37.0977 13.9805 37.5273 13.5391 37.8477 12.9688C38.168 12.3984 38.3281 11.7344 38.3281 10.9766C38.3281 10.2422 38.168 9.58984 37.8477 9.01953C37.5352 8.44922 37.1055 8.00781 36.5586 7.69531C36.0195 7.375 35.4258 7.21484 34.7773 7.21484C34.1367 7.21484 33.543 7.38281 32.9961 7.71875C32.457 8.04688 32.0273 8.5 31.707 9.07812C31.3945 9.65625 31.2383 10.2891 31.2383 10.9766C31.2383 11.6953 31.3984 12.3438 31.7188 12.9219C32.0391 13.4922 32.4688 13.9414 33.0078 14.2695C33.5547 14.5898 34.1484 14.75 34.7891 14.75Z" fill="#012345"/>
<path d="M55.0859 10.7656C55.0859 11.0312 55.0664 11.3516 55.0273 11.7266H45.6172C45.7109 12.3672 45.9141 12.9219 46.2266 13.3906C46.5469 13.8594 46.9414 14.2188 47.4102 14.4688C47.8867 14.7109 48.4023 14.832 48.957 14.832C49.6602 14.832 50.2344 14.6953 50.6797 14.4219C51.1328 14.1406 51.4648 13.7383 51.6758 13.2148H54.7695C54.5586 13.957 54.1875 14.6445 53.6562 15.2773C53.125 15.9102 52.457 16.418 51.6523 16.8008C50.8555 17.1758 49.9766 17.3633 49.0156 17.3633C47.8359 17.3633 46.7695 17.0781 45.8164 16.5078C44.8633 15.9375 44.1172 15.1641 43.5781 14.1875C43.0391 13.2109 42.7695 12.1406 42.7695 10.9766C42.7695 9.8125 43.0391 8.74219 43.5781 7.76562C44.1172 6.78906 44.8633 6.01562 45.8164 5.44531C46.7695 4.875 47.8359 4.58984 49.0156 4.58984C50.1953 4.58984 51.2461 4.87109 52.168 5.43359C53.0898 5.99609 53.8047 6.75 54.3125 7.69531C54.8281 8.63281 55.0859 9.65625 55.0859 10.7656ZM52.1914 9.53516C52.1523 9.08984 51.9844 8.67969 51.6875 8.30469C51.3906 7.92188 51.0039 7.62109 50.5273 7.40234C50.0586 7.17578 49.5508 7.0625 49.0039 7.0625C48.2461 7.0625 47.5664 7.27344 46.9648 7.69531C46.3711 8.10938 45.9609 8.72266 45.7344 9.53516H52.1914Z" fill="#012345"/>
<path d="M57.4062 0.488281H60.2422V17H57.4062V0.488281Z" fill="#012345"/>
<path d="M68.3867 17.3633C67.3242 17.3633 66.3594 17.0781 65.4922 16.5078C64.625 15.9375 63.9453 15.1641 63.4531 14.1875C62.9609 13.2109 62.7148 12.1406 62.7148 10.9766C62.7148 9.82031 62.9609 8.75391 63.4531 7.77734C63.9531 6.80078 64.6328 6.02734 65.4922 5.45703C66.3594 4.87891 67.3203 4.58984 68.375 4.58984C69.3594 4.58984 70.2305 4.80469 70.9883 5.23438C71.7539 5.65625 72.332 6.24219 72.7227 6.99219V4.95312H75.418V17H72.7227V14.9727C72.332 15.7227 71.7539 16.3086 70.9883 16.7305C70.2305 17.1523 69.3633 17.3633 68.3867 17.3633ZM69.0664 14.7383C69.7148 14.7383 70.3086 14.5742 70.8477 14.2461C71.3945 13.9102 71.8242 13.457 72.1367 12.8867C72.4492 12.3086 72.6055 11.6719 72.6055 10.9766C72.6055 10.2891 72.4453 9.66016 72.125 9.08984C71.8125 8.51172 71.3867 8.05469 70.8477 7.71875C70.3086 7.38281 69.7148 7.21484 69.0664 7.21484C68.418 7.21484 67.8242 7.375 67.2852 7.69531C66.7461 8.00781 66.3164 8.44922 65.9961 9.01953C65.6836 9.58984 65.5273 10.2422 65.5273 10.9766C65.5273 11.7344 65.6875 12.3984 66.0078 12.9688C66.3281 13.5391 66.7578 13.9766 67.2969 14.2812C67.8359 14.5859 68.4258 14.7383 69.0664 14.7383Z" fill="#012345"/>
<path d="M81.4531 4.95312V6.82812C81.8047 6.15625 82.3477 5.61719 83.082 5.21094C83.8242 4.79688 84.6523 4.58984 85.5664 4.58984C87.168 4.58984 88.375 5.09766 89.1875 6.11328C90 7.12891 90.4062 8.59375 90.4062 10.5078V17H87.5703V10.5664C87.5703 9.41016 87.3281 8.5625 86.8438 8.02344C86.3594 7.47656 85.6719 7.20312 84.7812 7.20312C84.2109 7.20312 83.6836 7.34766 83.1992 7.63672C82.7148 7.91797 82.3242 8.33594 82.0273 8.89062C81.7383 9.4375 81.5938 10.0898 81.5938 10.8477V17H78.7578V4.95312H81.4531Z" fill="#012345"/>
<path d="M105.102 10.7656C105.102 11.0312 105.082 11.3516 105.043 11.7266H95.6328C95.7266 12.3672 95.9297 12.9219 96.2422 13.3906C96.5625 13.8594 96.957 14.2188 97.4258 14.4688C97.9023 14.7109 98.418 14.832 98.9727 14.832C99.6758 14.832 100.25 14.6953 100.695 14.4219C101.148 14.1406 101.48 13.7383 101.691 13.2148H104.785C104.574 13.957 104.203 14.6445 103.672 15.2773C103.141 15.9102 102.473 16.418 101.668 16.8008C100.871 17.1758 99.9922 17.3633 99.0312 17.3633C97.8516 17.3633 96.7852 17.0781 95.832 16.5078C94.8789 15.9375 94.1328 15.1641 93.5938 14.1875C93.0547 13.2109 92.7852 12.1406 92.7852 10.9766C92.7852 9.8125 93.0547 8.74219 93.5938 7.76562C94.1328 6.78906 94.8789 6.01562 95.832 5.44531C96.7852 4.875 97.8516 4.58984 99.0312 4.58984C100.211 4.58984 101.262 4.87109 102.184 5.43359C103.105 5.99609 103.82 6.75 104.328 7.69531C104.844 8.63281 105.102 9.65625 105.102 10.7656ZM102.207 9.53516C102.168 9.08984 102 8.67969 101.703 8.30469C101.406 7.92188 101.02 7.62109 100.543 7.40234C100.074 7.17578 99.5664 7.0625 99.0195 7.0625C98.2617 7.0625 97.582 7.27344 96.9805 7.69531C96.3867 8.10938 95.9766 8.72266 95.75 9.53516H102.207Z" fill="#012345"/>
</svg>
